:FULLY-SPECIFIED
:FORCE-ALL-JOINTS-BE-3DOF
:DEGREES
2039
root -3.08532 14.8884 21.9659 175.8 -7.97783 173.321
lfemur -10.2831 7.85205 -19.3462
ltibia 55.7842 -0 0
lfoot -24.7907 24.6233 0.0546653
ltoes -38.1976 0 0
rfemur -39.3947 -8.2577 6.31002
rtibia 45.5594 -0 0
rfoot 20.9422 -3.99334 1.39906
rtoes 6.36521 -0 0
lowerback 14.4566 1.2063 -6.6647
upperback 0.548643 0.519003 1.44817
thorax -7.65546 0.47539 5.2018
lowerneck -3.65669 -5.2357 -7.42328
upperneck 9.9446 -6.94655 1.73774
head 4.25424 -3.74737 1.20609
lclavicle -8.25702e-14 -1.82882e-14 0
lhumerus -46.8193 -15.1252 99.0493
lradius 88.6803 -0 0
lwrist 41.7342 0 0
lhand -25.5273 33.0267 -0.00160726
lfingers 7.12502 -0 0
lthumb 1.00236 63.0039 -0.00155232
rclavicle -8.25702e-14 -1.82882e-14 0
rhumerus 27.9423 -15.2977 -87.5836
rradius 29.3501 -0 0
rwrist 56.8598 0 0
rhand -1.95439 -35.2473 -0.0547462
rfingers 7.12502 -0 0
rthumb 23.7152 -63.7824 -0.0451069
2040
root -3.10649 14.884 21.8086 175.387 -9.3391 173.233
lfemur -9.03022 7.25519 -19.6579
ltibia 55.4424 -0 0
lfoot -25.3169 24.5602 0.0485993
ltoes -38.7613 0 0
rfemur -40.0509 -8.4697 6.10389
rtibia 44.5418 -0 0
rfoot 21.8843 -3.09963 1.24286
rtoes 6.65577 -0 0
lowerback 14.5726 1.32112 -6.893
upperback 0.60342 0.610767 1.35317
thorax -7.67345 0.522213 5.21446
lowerneck -3.59053 -5.71266 -7.77876
upperneck 10.1882 -7.6122 1.99879
head 4.33171 -4.07998 1.32012
lclavicle -8.25702e-14 -1.82882e-14 0
lhumerus -49.318 -15.2513 100.619
lradius 91.0703 -0 0
lwrist 44.5521 0 0
lhand -25.5237 32.7547 -0.00142907
lfingers 7.12502 -0 0
lthumb 1.00584 62.7318 -0.00138022
rclavicle -8.25702e-14 -1.82882e-14 0
rhumerus 31.6492 -16.28 -88.4538
rradius 26.6097 -0 0
rwrist 61.4063 0 0
rhand -2.13865 -35.0665 -0.0486767
rfingers 7.12502 -0 0
rthumb 23.5387 -63.6268 -0.0401063
2041
root -3.12765 14.8797 21.6513 174.998 -10.6247 173.159
lfemur -7.84601 6.6981 -19.9637
ltibia 55.1197 -0 0
lfoot -25.8136 24.5006 0.0423412
ltoes -39.2933 0 0
rfemur -40.6699 -8.67196 5.91146
rtibia 43.5812 -0 0
rfoot 22.7712 -2.25849 1.08197
rtoes 6.93005 -0 0
lowerback 14.6817 1.42992 -7.10831
upperback 0.65499 0.697473 1.26357
thorax -7.69043 0.566417 5.2264
lowerneck -3.5253 -6.16252 -8.11513
upperneck 10.4156 -8.24156 2.24298
head 4.40426 -4.3941 1.4274
lclavicle -8.25702e-14 -1.82882e-14 0
lhumerus -51.6801 -15.3095 102.105
lradius 93.3264 -0 0
lwrist 47.2123 0 0
lhand -25.5203 32.4979 -0.00124519
lfingers 7.12502 -0 0
lthumb 1.00911 62.475 -0.00120263
rclavicle -8.25702e-14 -1.82882e-14 0
rhumerus 35.1795 -17.1556 -89.3387
rradius 24.0229 -0 0
rwrist 65.698 0 0
rhand -2.31258 -34.8958 -0.0424137
rfingers 7.12502 -0 0
rthumb 23.3721 -63.48 -0.0349462
2042
root -3.14881 14.8753 21.494 174.635 -11.8263 173.098
lfemur -6.73795 6.18332 -20.2596
ltibia 54.8183 -0 0
lfoot -26.2778 24.445 0.0360273
ltoes -39.7905 0 0
rfemur -41.2481 -8.8628 5.73357
rtibia 42.6836 -0 0
rfoot 23.5977 -1.4749 0.919899
rtoes 7.18635 -0 0
lowerback 14.7832 1.53197 -7.30931
upperback 0.703056 0.778565 1.17992
thorax -7.70628 0.607725 5.23754
lowerneck -3.46189 -6.58252 -8.43016
upperneck 10.6261 -8.8305 2.46923
head 4.47155 -4.68774 1.52732
lclavicle -8.25702e-14 -1.82882e-14 0
lhumerus -53.8884 -15.3105 103.495
lradius 95.4345 -0 0
lwrist 49.6979 0 0
lhand -25.5171 32.2579 -0.00105963
lfingers 7.12502 -0 0
lthumb 1.01217 62.235 -0.00102341
rclavicle -8.25702e-14 -1.82882e-14 0
rhumerus 38.5057 -17.9249 -90.219
rradius 21.6056 -0 0
rwrist 69.7083 0 0
rhand -2.47507 -34.7363 -0.0360933
rfingers 7.12502 -0 0
rthumb 23.2164 -63.3428 -0.0297388
2043
root -3.16997 14.871 21.3367 174.299 -12.9359 173.048
lfemur -5.71364 5.71326 -20.5413
ltibia 54.54 -0 0
lfoot -26.7062 24.3938 0.0297993
ltoes -40.2495 0 0
rfemur -41.7815 -9.04053 5.57101
rtibia 41.8551 -0 0
rfoot 24.3586 -0.753721 0.760284
rtoes 7.42294 -0 0
lowerback 14.8766 1.62648 -7.49471
upperback 0.747322 0.853485 1.10276
thorax -7.7209 0.64586 5.24781
lowerneck -3.40125 -6.96991 -8.72163
upperneck 10.8185 -9.37489 2.67647
head 4.53323 -4.9589 1.61928
lclavicle -8.25702e-14 -1.82882e-14 0
lhumerus -55.9262 -15.2656 104.777
lradius 97.3805 -0 0
lwrist 51.9924 0 0
lhand -25.5142 32.0364 -0.000876548
lfingers 7.12502 -0 0
lthumb 1.015 62.0135 -0.000846588
rclavicle -8.25702e-14 -1.82882e-14 0
rhumerus 41.5995 -18.5906 -91.0755
rradius 19.3743 -0 0
rwrist 73.4103 0 0
rhand -2.62506 -34.5891 -0.0298573
rfingers 7.12502 -0 0
rthumb 23.0728 -63.2162 -0.0246008
2044
root -3.19113 14.8666 21.1794 173.992 -13.9453 173.008
lfemur -4.78075 5.29015 -20.8046
ltibia 54.2869 -0 0
lfoot -27.0959 24.3472 0.0238023
ltoes -40.6669 0 0
rfemur -42.2664 -9.20346 5.42456
rtibia 41.1015 -0 0
rfoot 25.0488 -0.099745 0.606826
rtoes 7.63811 -0 0
lowerback 14.9613 1.7127 -7.6632
upperback 0.787494 0.921674 1.03263
thorax -7.7342 0.680545 5.25715
lowerneck -3.34432 -7.32197 -8.98729
upperneck 10.9921 -9.87058 2.86363
head 4.58897 -5.2056 1.70271
lclavicle -8.25702e-14 -1.82882e-14 0
lhumerus -57.7776 -15.1866 105.941
lradius 99.1504 -0 0
lwrist 54.0792 0 0
lhand -25.5115 31.8349 -0.000700222
lfingers 7.12502 -0 0
lthumb 1.01757 61.812 -0.000676288
rclavicle -8.25702e-14 -1.82882e-14 0
rhumerus 44.4325 -19.1569 -91.8894
rradius 17.3449 -0 0
rwrist 76.7771 0 0
rhand -2.76146 -34.4553 -0.0238513
rfingers 7.12502 -0 0
rthumb 22.9421 -63.101 -0.0196523
2045
root -3.2123 14.8623 21.0221 173.719 -14.8463 172.977
lfemur -3.94702 4.91618 -21.0453
ltibia 54.061 -0 0
lfoot -27.4436 24.3056 0.0181825
ltoes -41.0394 0 0
rfemur -42.699 -9.34991 5.29498
rtibia 40.429 -0 0
rfoot 25.6632 0.482318 0.463228
rtoes 7.83015 -0 0
lowerback 15.0367 1.78986 -7.81348
upperback 0.823278 0.982575 0.970077
thorax -7.74606 0.711504 5.26547
lowerneck -3.29208 -7.63596 -9.22487
upperneck 11.1459 -10.3135 3.02962
head 4.63843 -5.42585 1.77698
lclavicle -8.25702e-14 -1.82882e-14 0
lhumerus -59.4276 -15.0855 106.976
lradius 100.73 -0 0
lwrist 55.9417 0 0
lhand -25.5091 31.6551 -0.000534951
lfingers 7.12502 -0 0
lthumb 1.01986 61.6322 -0.000516666
rclavicle -8.25702e-14 -1.82882e-14 0
rhumerus 46.976 -19.6296 -92.6424
rradius 15.5337 -0 0
rwrist 79.7821 0 0
rhand -2.88318 -34.3358 -0.0182218
rfingers 7.12502 -0 0
rthumb 22.8255 -62.9983 -0.015014
2046
root -3.23346 14.8579 20.8648 173.48 -15.6309 172.953
lfemur -3.22024 4.59347 -21.2592
ltibia 53.8643 -0 0
lfoot -27.7464 24.2695 0.0130844
ltoes -41.3637 0 0
rfemur -43.0756 -9.47819 5.18303
rtibia 39.8434 -0 0
rfoot 26.197 0.987793 0.333136
rtoes 7.99735 -0 0
lowerback 15.1022 1.85719 -7.94424
upperback 0.854378 1.03563 0.915649
thorax -7.75638 0.738458 5.27272
lowerneck -3.24551 -7.90915 -9.43209
upperneck 11.2788 -10.6994 3.17334
head 4.68128 -5.61766 1.84152
lclavicle -8.25702e-14 -1.82882e-14 0
lhumerus -60.8617 -14.9741 107.874
lradius 102.105 -0 0
lwrist 57.5633 0 0
lhand -25.5071 31.4986 -0.000384996
lfingers 7.12502 -0 0
lthumb 1.02186 61.4757 -0.000371837
rclavicle -8.25702e-14 -1.82882e-14 0
rhumerus 49.2017 -20.0151 -93.3174
rradius 13.9567 -0 0
rwrist 82.3982 0 0
rhand -2.98915 -34.2318 -0.013114
rfingers 7.12502 -0 0
rthumb 22.724 -62.9088 -0.0108054
2047
root -3.25462 14.8535 20.7075 173.279 -16.2909 172.936
lfemur -2.60821 4.32412 -21.4422
ltibia 53.6988 -0 0
lfoot -28.0011 24.2391 0.0086483
ltoes -41.6366 0 0
rfemur -43.3922 -9.58666 5.08949
rtibia 39.3509 -0 0
rfoot 26.645 1.41202 0.22007
rtoes 8.13799 -0 0
lowerback 15.1571 1.91395 -8.05417
upperback 0.880501 1.08028 0.869887
thorax -7.76506 0.761133 5.2788
lowerneck -3.20553 -8.13882 -9.60668
upperneck 11.3901 -11.0243 3.29367
head 4.71716 -5.77904 1.89571
lclavicle -8.25702e-14 -1.82882e-14 0
lhumerus -62.0658 -14.8636 108.627
lradius 103.262 -0 0
lwrist 58.9273 0 0
lhand -25.5053 31.3669 -0.000254488
lfingers 7.12502 -0 0
lthumb 1.02354 61.344 -0.000245789
rclavicle -8.25702e-14 -1.82882e-14 0
rhumerus 51.0816 -20.32 -93.8984
rradius 12.6303 -0 0
rwrist 84.5989 0 0
rhand -3.07828 -34.1444 -0.00866858
rfingers 7.12502 -0 0
rthumb 22.6386 -62.8336 -0.0071426
2048
root -3.27578 14.8492 20.5502 173.117 -16.8183 172.924
lfemur -2.11875 4.11033 -21.5904
ltibia 53.5667 -0 0
lfoot -28.2045 24.2148 0.00500689
ltoes -41.8545 0 0
rfemur -43.6452 -9.67369 5.01517
rtibia 38.9573 -0 0
rfoot 27.0024 1.75033 0.127351
rtoes 8.25036 -0 0
lowerback 15.201 1.95938 -8.14197
upperback 0.901347 1.11597 0.833338
thorax -7.77199 0.77925 5.28367
lowerneck -3.17306 -8.32223 -9.74637
upperneck 11.4785 -11.284 3.38945
head 4.74573 -5.908 1.93895
lclavicle -8.25702e-14 -1.82882e-14 0
lhumerus -63.0263 -14.7643 109.226
lradius 104.186 -0 0
lwrist 60.0171 0 0
lhand -25.504 31.2617 -0.000147344
lfingers 7.12502 -0 0
lthumb 1.02488 61.2388 -0.000142308
rclavicle -8.25702e-14 -1.82882e-14 0
rhumerus 52.5886 -20.5506 -94.3709
rradius 11.5705 -0 0
rwrist 86.3571 0 0
rhand -3.14948 -34.0745 -0.00501897
rfingers 7.12502 -0 0
rthumb 22.5704 -62.7734 -0.00413547
2049
root -3.29695 14.8448 20.3929 172.999 -17.205 172.916
lfemur -1.75962 3.95439 -21.7002
ltibia 53.4697 -0 0
lfoot -28.3537 24.1971 0.00228241
ltoes -42.0144 0 0
rfemur -43.8306 -9.7377 4.96092
rtibia 38.6688 -0 0
rfoot 27.2641 1.99799 0.0580339
rtoes 8.33275 -0 0
lowerback 15.2331 1.99272 -8.20632
upperback 0.916616 1.14214 0.80655
thorax -7.77708 0.792533 5.28723
lowerneck -3.14896 -8.45665 -9.84889
upperneck 11.5431 -11.4746 3.45947
head 4.76662 -6.00257 1.97061
lclavicle -8.25702e-14 -1.82882e-14 0
lhumerus -63.7295 -14.6854 109.665
lradius 104.864 -0 0
lwrist 60.8161 0 0
lhand -25.5029 31.1845 -6.71708e-05
lfingers 7.12502 -0 0
lthumb 1.02586 61.1616 -6.48749e-05
rclavicle -8.25702e-14 -1.82882e-14 0
rhumerus 53.6961 -20.7123 -94.7219
rradius 10.7935 -0 0
rwrist 87.6462 0 0
rhand -3.20169 -34.0233 -0.00228804
rfingers 7.12502 -0 0
rthumb 22.5204 -62.7294 -0.00188527
